<?xml version="1.0" encoding="UTF-8" standalone="no"?>
<!-- Created with Inkscape (http://www.inkscape.org/) -->

<svg
   width="174.6554"
   height="72.44516"
   viewBox="0 0 174.6554 72.44516"
   version="1.1"
   id="svg1"
   xml:space="preserve"
   xmlns="http://www.w3.org/2000/svg"
   xmlns:svg="http://www.w3.org/2000/svg"><defs
     id="defs1" /><g
     id="layer24"
     transform="translate(-96.166512,-261.45136)"><rect
       style="fill:#610061;fill-opacity:1;stroke-width:1.75402;stroke-linecap:round;stroke-linejoin:round"
       id="rect5"
       width="174.6554"
       height="28.074133"
       x="96.166512"
       y="305.82239" /><path
       id="rect6"
       style="fill:#9c339c;fill-opacity:1;stroke-width:1.98006;stroke-linecap:round;stroke-linejoin:round"
       d="M 123.27957,261.45136 H 245.1326 l 25.68931,44.37103 H 96.166512 Z" /></g><g
     id="layer21"
     style="display:none"
     transform="translate(-96.166512,-261.45136)"><g
       id="layer18"><g
         id="layer19"><path
           id="path26-9"
           style="fill:#01708b;fill-opacity:1;stroke:#8f2b8e;stroke-width:2.10952;stroke-linecap:round;stroke-linejoin:round;stroke-dasharray:none;stroke-opacity:1"
           d="m 241.22634,203.56948 v 66.79576 a 5.6934216,55.706354 0 0 0 1.20852,1.26855 5.6934216,55.706354 0 0 0 5.69281,-55.70535 5.6934216,55.706354 0 0 0 -0.14201,-12.35896 z" /><path
           id="path26"
           style="fill:#01708b;fill-opacity:1;stroke:#8f2b8e;stroke-width:3;stroke-linecap:round;stroke-linejoin:round;stroke-dasharray:none;stroke-opacity:1"
           d="m 246.77936,216.37546 v 65.92188 a 11.667262,54.977551 0 0 0 2.47656,1.25195 11.667262,54.977551 0 0 0 11.66602,-54.97656 11.667262,54.977551 0 0 0 -0.29102,-12.19727 z" /></g></g><g
       id="g31"
       transform="matrix(-1,0,0,1,369.18723,1.3853433)"><g
         id="g29"><path
           id="path27"
           style="fill:#01708b;fill-opacity:1;stroke:#8f2b8e;stroke-width:2.10952;stroke-linecap:round;stroke-linejoin:round;stroke-dasharray:none;stroke-opacity:1"
           d="m 241.22634,203.56948 v 66.79576 a 5.6934216,55.706354 0 0 0 1.20852,1.26855 5.6934216,55.706354 0 0 0 5.69281,-55.70535 5.6934216,55.706354 0 0 0 -0.14201,-12.35896 z" /><path
           id="path28"
           style="fill:#01708b;fill-opacity:1;stroke:#8f2b8e;stroke-width:2.10952;stroke-linecap:round;stroke-linejoin:round;stroke-dasharray:none;stroke-opacity:1"
           d="m 236.05476,191.05476 v 66.79576 a 5.6934216,55.706354 0 0 0 1.20852,1.26855 5.6934216,55.706354 0 0 0 5.69281,-55.70535 5.6934216,55.706354 0 0 0 -0.14201,-12.35896 z" /><path
           id="path29"
           style="fill:#01708b;fill-opacity:1;stroke:#8f2b8e;stroke-width:3;stroke-linecap:round;stroke-linejoin:round;stroke-dasharray:none;stroke-opacity:1"
           d="m 246.77936,216.37546 v 65.92188 a 11.667262,54.977551 0 0 0 2.47656,1.25195 11.667262,54.977551 0 0 0 11.66602,-54.97656 11.667262,54.977551 0 0 0 -0.29102,-12.19727 z" /></g></g><g
       id="layer8"><g
         id="layer11"><rect
           style="fill:#01708b;fill-opacity:1;stroke:#8f2b8e;stroke-width:3;stroke-linecap:round;stroke-linejoin:round;stroke-dasharray:none;stroke-opacity:1"
           id="rect17"
           width="6.129993"
           height="25.429541"
           x="159.50977"
           y="266.60556" /><g
           id="layer12"><rect
             style="fill:#01708b;fill-opacity:1;stroke:#8f2b8e;stroke-width:2.64124;stroke-linecap:round;stroke-linejoin:round;stroke-dasharray:none;stroke-opacity:1"
             id="rect18"
             width="1.6065735"
             height="12.815719"
             x="307.41766"
             y="28.241709"
             transform="matrix(0.51099418,0.85958417,-0.68136408,0.73194466,0,0)" /><rect
             style="fill:#01708b;fill-opacity:1;stroke:#8f2b8e;stroke-width:2.64209;stroke-linecap:round;stroke-linejoin:round;stroke-dasharray:none;stroke-opacity:1"
             id="rect18-5"
             width="1.5982431"
             height="12.890753"
             x="90.93647"
             y="-291.41086"
             transform="matrix(-0.52611249,0.85041499,-0.66669722,-0.74532866,0,0)" /><rect
             style="fill:#01708b;fill-opacity:1;stroke:#8f2b8e;stroke-width:2.64124;stroke-linecap:round;stroke-linejoin:round;stroke-dasharray:none;stroke-opacity:1"
             id="rect18-9"
             width="1.6065735"
             height="12.815719"
             x="319.51065"
             y="14.320865"
             transform="matrix(0.51099418,0.85958417,-0.68136408,0.73194466,0,0)" /><rect
             style="fill:#01708b;fill-opacity:1;stroke:#8f2b8e;stroke-width:2.64209;stroke-linecap:round;stroke-linejoin:round;stroke-dasharray:none;stroke-opacity:1"
             id="rect18-5-2"
             width="1.5982431"
             height="12.890753"
             x="78.906212"
             y="-305.41318"
             transform="matrix(-0.52611249,0.85041499,-0.66669722,-0.74532866,0,0)" /><rect
             style="fill:#01708b;fill-opacity:1;stroke:#8f2b8e;stroke-width:2.64124;stroke-linecap:round;stroke-linejoin:round;stroke-dasharray:none;stroke-opacity:1"
             id="rect18-3"
             width="1.6065735"
             height="12.815719"
             x="332.24503"
             y="-0.33838123"
             transform="matrix(0.51099418,0.85958417,-0.68136408,0.73194466,0,0)" /><rect
             style="fill:#01708b;fill-opacity:1;stroke:#8f2b8e;stroke-width:2.64209;stroke-linecap:round;stroke-linejoin:round;stroke-dasharray:none;stroke-opacity:1"
             id="rect18-5-1"
             width="1.5982431"
             height="12.890753"
             x="66.237839"
             y="-320.15823"
             transform="matrix(-0.52611249,0.85041499,-0.66669722,-0.74532866,0,0)" /></g><rect
           style="fill:#01708b;fill-opacity:1;stroke:#8f2b8e;stroke-width:3;stroke-linecap:round;stroke-linejoin:round;stroke-dasharray:none;stroke-opacity:1"
           id="rect17-8"
           width="6.129993"
           height="25.429541"
           x="-209.88927"
           y="266.60355"
           transform="scale(-1,1)" /><rect
           style="fill:#01708b;fill-opacity:1;stroke:#8f2b8e;stroke-width:2.64124;stroke-linecap:round;stroke-linejoin:round;stroke-dasharray:none;stroke-opacity:1"
           id="rect18-50"
           width="1.6065735"
           height="12.815719"
           x="27.056746"
           y="357.63086"
           transform="matrix(-0.51099417,0.85958418,0.68136409,0.73194466,0,0)" /><rect
           style="fill:#01708b;fill-opacity:1;stroke:#8f2b8e;stroke-width:2.64209;stroke-linecap:round;stroke-linejoin:round;stroke-dasharray:none;stroke-opacity:1"
           id="rect18-5-28"
           width="1.5982431"
           height="12.890753"
           x="376.74945"
           y="34.564621"
           transform="matrix(0.52611249,0.85041499,0.66669723,-0.74532866,0,0)" /><rect
           style="fill:#01708b;fill-opacity:1;stroke:#8f2b8e;stroke-width:2.64124;stroke-linecap:round;stroke-linejoin:round;stroke-dasharray:none;stroke-opacity:1"
           id="rect18-9-6"
           width="1.6065735"
           height="12.815719"
           x="39.149719"
           y="343.71002"
           transform="matrix(-0.51099417,0.85958418,0.68136409,0.73194466,0,0)" /><rect
           style="fill:#01708b;fill-opacity:1;stroke:#8f2b8e;stroke-width:2.64209;stroke-linecap:round;stroke-linejoin:round;stroke-dasharray:none;stroke-opacity:1"
           id="rect18-5-2-0"
           width="1.5982431"
           height="12.890753"
           x="364.71921"
           y="20.562298"
           transform="matrix(0.52611249,0.85041499,0.66669723,-0.74532866,0,0)" /><rect
           style="fill:#01708b;fill-opacity:1;stroke:#8f2b8e;stroke-width:2.64124;stroke-linecap:round;stroke-linejoin:round;stroke-dasharray:none;stroke-opacity:1"
           id="rect18-3-2"
           width="1.6065735"
           height="12.815719"
           x="51.884109"
           y="329.05075"
           transform="matrix(-0.51099417,0.85958418,0.68136409,0.73194466,0,0)" /><rect
           style="fill:#01708b;fill-opacity:1;stroke:#8f2b8e;stroke-width:2.64209;stroke-linecap:round;stroke-linejoin:round;stroke-dasharray:none;stroke-opacity:1"
           id="rect18-5-1-4"
           width="1.5982431"
           height="12.890753"
           x="352.05084"
           y="5.817246"
           transform="matrix(0.52611249,0.85041499,0.66669723,-0.74532866,0,0)" /></g><g
         id="g15"
         style="display:none;fill:#000000;fill-opacity:1;stroke:#000000;stroke-opacity:1"><path
           id="path11"
           style="fill:#5b018b;fill-opacity:1;stroke:#8f2b8e;stroke-width:1.89852;stroke-linecap:round;stroke-linejoin:round;stroke-dasharray:none;stroke-opacity:1"
           d="m 164.43065,221.18665 -22.05773,21.65958 -8.88684,-17.61705 c -0.10614,1.18657 -13.0122,9.7581 -13.01252,10.9489 -3e-5,23.48723 19.07722,37.02 43.95709,37.01979 24.87987,2.1e-4 43.95712,-13.53256 43.95709,-37.01979 -3.2e-4,-1.1908 -12.90638,-9.76233 -13.01253,-10.9489 l -8.88683,17.61705 z" /><path
           id="path15"
           style="fill:#01708b;fill-opacity:1;stroke:#8f2b8e;stroke-width:2.25623;stroke-linecap:round;stroke-linejoin:round;stroke-dasharray:none;stroke-opacity:1"
           d="m 123.08008,250.36693 -0.041,0.0488 15.77539,79.85743 6.55078,-0.004 a 19.450165,59.2957 0 0 1 19.44922,-58.83008 19.450165,59.2957 0 0 1 19.44922,58.8086 l 5.54102,-0.004 15.73828,-79.87695 z" /></g><g
         id="g17"
         style="fill:#000000;fill-opacity:1;stroke:#000000;stroke-opacity:1"><path
           id="path16"
           style="fill:#5b018b;fill-opacity:1;stroke:#8f2b8e;stroke-width:1.89852;stroke-linecap:round;stroke-linejoin:round;stroke-dasharray:none;stroke-opacity:1"
           d="m 184.80469,171.05092 -22.05664,21.6582 -8.88672,-17.61718 c -0.10614,1.18657 -13.01335,9.75841 -13.01367,10.94921 -1e-5,5.31184 0.97743,9.86234 2.77539,13.72266 l -0.25391,-0.002 4.69727,9.55078 11.44336,57.29297 6.55078,-0.004 c 0.082,-26.26432 8.38833,-47.55898 18.74414,-48.49023 h 0.002 c 10.3558,0.93125 18.66019,22.22591 18.74219,48.49023 l 6.55078,0.004 11.44336,-57.29297 4.69726,-9.55078 -0.25195,0.002 c 1.79795,-3.86032 2.7754,-8.41082 2.77539,-13.72266 -3.2e-4,-1.1908 -12.90752,-9.76264 -13.01367,-10.94921 l -8.88672,17.61718 z" /></g></g></g><g
     id="g73"
     transform="translate(-96.166512,-261.45136)"
     style="display:none"><g
       id="layer22"><rect
         style="fill:#3a363c;fill-opacity:1;stroke:#0d001d;stroke-width:3.03795;stroke-linecap:round;stroke-linejoin:round;stroke-opacity:1"
         id="rect2"
         width="130.77679"
         height="139.26208"
         x="118.10581"
         y="125.884" /></g><g
       id="g36"><g
         id="g34"><path
           id="path32"
           style="fill:#938c99;fill-opacity:1;stroke:#0d001d;stroke-width:2.10952;stroke-linecap:round;stroke-linejoin:round;stroke-dasharray:none;stroke-opacity:1"
           d="m 241.22634,203.56948 v 66.79576 a 5.6934216,55.706354 0 0 0 1.20852,1.26855 5.6934216,55.706354 0 0 0 5.69281,-55.70535 5.6934216,55.706354 0 0 0 -0.14201,-12.35896 z" /><path
           id="path34"
           style="fill:#938c99;fill-opacity:1;stroke:#0d001d;stroke-width:3;stroke-linecap:round;stroke-linejoin:round;stroke-dasharray:none;stroke-opacity:1"
           d="m 246.77936,216.37546 v 65.92188 a 11.667262,54.977551 0 0 0 2.47656,1.25195 11.667262,54.977551 0 0 0 11.66602,-54.97656 11.667262,54.977551 0 0 0 -0.29102,-12.19727 z" /></g></g><g
       id="g40"
       transform="matrix(-1,0,0,1,369.18723,1.3853433)"><g
         id="g38"><path
           id="path36"
           style="fill:#938c99;fill-opacity:1;stroke:#0d001d;stroke-width:2.10952;stroke-linecap:round;stroke-linejoin:round;stroke-dasharray:none;stroke-opacity:1"
           d="m 241.22634,203.56948 v 66.79576 a 5.6934216,55.706354 0 0 0 1.20852,1.26855 5.6934216,55.706354 0 0 0 5.69281,-55.70535 5.6934216,55.706354 0 0 0 -0.14201,-12.35896 z" /><path
           id="path37"
           style="fill:#938c99;fill-opacity:1;stroke:#0d001d;stroke-width:2.10952;stroke-linecap:round;stroke-linejoin:round;stroke-dasharray:none;stroke-opacity:1"
           d="m 236.05476,191.05476 v 66.79576 a 5.6934216,55.706354 0 0 0 1.20852,1.26855 5.6934216,55.706354 0 0 0 5.69281,-55.70535 5.6934216,55.706354 0 0 0 -0.14201,-12.35896 z" /><path
           id="path38"
           style="fill:#938c99;fill-opacity:1;stroke:#0d001d;stroke-width:3;stroke-linecap:round;stroke-linejoin:round;stroke-dasharray:none;stroke-opacity:1"
           d="m 246.77936,216.37546 v 65.92188 a 11.667262,54.977551 0 0 0 2.47656,1.25195 11.667262,54.977551 0 0 0 11.66602,-54.97656 11.667262,54.977551 0 0 0 -0.29102,-12.19727 z" /></g></g><g
       id="g65"><g
         id="g55"><rect
           style="fill:#938c99;fill-opacity:1;stroke:none;stroke-width:3;stroke-linecap:round;stroke-linejoin:round;stroke-dasharray:none;stroke-opacity:1"
           id="rect42"
           width="6.129993"
           height="25.429541"
           x="159.59303"
           y="253.21631" /><g
           id="g48"><rect
             style="fill:#ff7700;fill-opacity:1;stroke:#ff7700;stroke-width:2.64124;stroke-linecap:round;stroke-linejoin:round;stroke-dasharray:none;stroke-opacity:1"
             id="rect43"
             width="1.6065735"
             height="12.815719"
             x="297.97522"
             y="21.038073"
             transform="matrix(0.51099418,0.85958417,-0.68136408,0.73194466,0,0)" /><rect
             style="fill:#ff7700;fill-opacity:1;stroke:#ff7700;stroke-width:2.64209;stroke-linecap:round;stroke-linejoin:round;stroke-dasharray:none;stroke-opacity:1"
             id="rect44"
             width="1.5982431"
             height="12.890753"
             x="81.564484"
             y="-284.14001"
             transform="matrix(-0.52611249,0.85041499,-0.66669722,-0.74532866,0,0)" /><rect
             style="fill:#ff7700;fill-opacity:1;stroke:#ff7700;stroke-width:2.64124;stroke-linecap:round;stroke-linejoin:round;stroke-dasharray:none;stroke-opacity:1"
             id="rect45"
             width="1.6065735"
             height="12.815719"
             x="310.06821"
             y="7.1172256"
             transform="matrix(0.51099418,0.85958417,-0.68136408,0.73194466,0,0)" /><rect
             style="fill:#ff7700;fill-opacity:1;stroke:#ff7700;stroke-width:2.64209;stroke-linecap:round;stroke-linejoin:round;stroke-dasharray:none;stroke-opacity:1"
             id="rect46"
             width="1.5982431"
             height="12.890753"
             x="69.534225"
             y="-298.14233"
             transform="matrix(-0.52611249,0.85041499,-0.66669722,-0.74532866,0,0)" /><rect
             style="fill:#ff7700;fill-opacity:1;stroke:#ff7700;stroke-width:2.64124;stroke-linecap:round;stroke-linejoin:round;stroke-dasharray:none;stroke-opacity:1"
             id="rect47"
             width="1.6065735"
             height="12.815719"
             x="322.80258"
             y="-7.5420198"
             transform="matrix(0.51099418,0.85958417,-0.68136408,0.73194466,0,0)" /><rect
             style="fill:#ff7700;fill-opacity:1;stroke:#ff7700;stroke-width:2.64209;stroke-linecap:round;stroke-linejoin:round;stroke-dasharray:none;stroke-opacity:1"
             id="rect48"
             width="1.5982431"
             height="12.890753"
             x="56.865856"
             y="-312.88739"
             transform="matrix(-0.52611249,0.85041499,-0.66669722,-0.74532866,0,0)" /></g><rect
           style="fill:#938c99;fill-opacity:1;stroke:none;stroke-width:3;stroke-linecap:round;stroke-linejoin:round;stroke-dasharray:none;stroke-opacity:1"
           id="rect49"
           width="6.129993"
           height="25.429541"
           x="-209.97253"
           y="253.21429"
           transform="scale(-1,1)" /><rect
           style="fill:#ff7700;fill-opacity:1;stroke:#ff7700;stroke-width:2.64124;stroke-linecap:round;stroke-linejoin:round;stroke-dasharray:none;stroke-opacity:1"
           id="rect50"
           width="1.6065735"
           height="12.815719"
           x="17.487291"
           y="350.57632"
           transform="matrix(-0.51099417,0.85958418,0.68136409,0.73194466,0,0)" /><rect
           style="fill:#ff7700;fill-opacity:1;stroke:#ff7700;stroke-width:2.64209;stroke-linecap:round;stroke-linejoin:round;stroke-dasharray:none;stroke-opacity:1"
           id="rect51"
           width="1.5982431"
           height="12.890753"
           x="367.5069"
           y="41.983124"
           transform="matrix(0.52611249,0.85041499,0.66669723,-0.74532866,0,0)" /><rect
           style="fill:#ff7700;fill-opacity:1;stroke:#ff7700;stroke-width:2.64124;stroke-linecap:round;stroke-linejoin:round;stroke-dasharray:none;stroke-opacity:1"
           id="rect52"
           width="1.6065735"
           height="12.815719"
           x="29.580265"
           y="336.65549"
           transform="matrix(-0.51099417,0.85958418,0.68136409,0.73194466,0,0)" /><rect
           style="fill:#ff7700;fill-opacity:1;stroke:#ff7700;stroke-width:2.64209;stroke-linecap:round;stroke-linejoin:round;stroke-dasharray:none;stroke-opacity:1"
           id="rect53"
           width="1.5982431"
           height="12.890753"
           x="355.47665"
           y="27.980803"
           transform="matrix(0.52611249,0.85041499,0.66669723,-0.74532866,0,0)" /><rect
           style="fill:#ff7700;fill-opacity:1;stroke:#ff7700;stroke-width:2.64124;stroke-linecap:round;stroke-linejoin:round;stroke-dasharray:none;stroke-opacity:1"
           id="rect54"
           width="1.6065735"
           height="12.815719"
           x="42.314648"
           y="321.99622"
           transform="matrix(-0.51099417,0.85958418,0.68136409,0.73194466,0,0)" /><rect
           style="fill:#ff7700;fill-opacity:1;stroke:#ff7700;stroke-width:2.64209;stroke-linecap:round;stroke-linejoin:round;stroke-dasharray:none;stroke-opacity:1"
           id="rect55"
           width="1.5982431"
           height="12.890753"
           x="342.80829"
           y="13.235749"
           transform="matrix(0.52611249,0.85041499,0.66669723,-0.74532866,0,0)" /></g><g
         id="g58"
         style="display:none;fill:#000000;fill-opacity:1;stroke:#000000;stroke-opacity:1"><path
           id="path57"
           style="fill:#5b018b;fill-opacity:1;stroke:#8f2b8e;stroke-width:1.89852;stroke-linecap:round;stroke-linejoin:round;stroke-dasharray:none;stroke-opacity:1"
           d="m 164.43065,221.18665 -22.05773,21.65958 -8.88684,-17.61705 c -0.10614,1.18657 -13.0122,9.7581 -13.01252,10.9489 -3e-5,23.48723 19.07722,37.02 43.95709,37.01979 24.87987,2.1e-4 43.95712,-13.53256 43.95709,-37.01979 -3.2e-4,-1.1908 -12.90638,-9.76233 -13.01253,-10.9489 l -8.88683,17.61705 z" /><path
           id="path58"
           style="fill:#01708b;fill-opacity:1;stroke:#8f2b8e;stroke-width:2.25623;stroke-linecap:round;stroke-linejoin:round;stroke-dasharray:none;stroke-opacity:1"
           d="m 123.08008,250.36693 -0.041,0.0488 15.77539,79.85743 6.55078,-0.004 a 19.450165,59.2957 0 0 1 19.44922,-58.83008 19.450165,59.2957 0 0 1 19.44922,58.8086 l 5.54102,-0.004 15.73828,-79.87695 z" /></g></g></g></svg>
