<?xml version="1.0" encoding="UTF-8" standalone="no"?>
<!-- Created with Inkscape (http://www.inkscape.org/) -->

<svg
   width="200.362"
   height="266.09888"
   viewBox="0 0 200.362 266.09888"
   version="1.1"
   id="svg1"
   xml:space="preserve"
   xmlns="http://www.w3.org/2000/svg"
   xmlns:svg="http://www.w3.org/2000/svg"><defs
     id="defs1" /><g
     id="layer21"
     style="display:none"
     transform="translate(-83.756421,-20.335767)"><g
       id="layer18"><g
         id="layer19"><path
           id="path26-9"
           style="fill:#01708b;fill-opacity:1;stroke:#8f2b8e;stroke-width:2.10952;stroke-linecap:round;stroke-linejoin:round;stroke-dasharray:none;stroke-opacity:1"
           d="m 241.22634,203.56948 v 66.79576 a 5.6934216,55.706354 0 0 0 1.20852,1.26855 5.6934216,55.706354 0 0 0 5.69281,-55.70535 5.6934216,55.706354 0 0 0 -0.14201,-12.35896 z" /><path
           id="path26-9-3"
           style="fill:#01708b;fill-opacity:1;stroke:#8f2b8e;stroke-width:2.10952;stroke-linecap:round;stroke-linejoin:round;stroke-dasharray:none;stroke-opacity:1"
           d="m 236.05476,191.05476 v 66.79576 a 5.6934216,55.706354 0 0 0 1.20852,1.26855 5.6934216,55.706354 0 0 0 5.69281,-55.70535 5.6934216,55.706354 0 0 0 -0.14201,-12.35896 z" /><path
           id="path26"
           style="fill:#01708b;fill-opacity:1;stroke:#8f2b8e;stroke-width:3;stroke-linecap:round;stroke-linejoin:round;stroke-dasharray:none;stroke-opacity:1"
           d="m 246.77936,216.37546 v 65.92188 a 11.667262,54.977551 0 0 0 2.47656,1.25195 11.667262,54.977551 0 0 0 11.66602,-54.97656 11.667262,54.977551 0 0 0 -0.29102,-12.19727 z" /></g><rect
         style="fill:#01708b;fill-opacity:1;stroke:#8f2b8e;stroke-width:2.74077;stroke-linecap:round;stroke-linejoin:round;stroke-dasharray:none;stroke-opacity:1"
         id="rect25"
         width="27.759232"
         height="115.75923"
         x="234.37039"
         y="111.37038" /><rect
         style="fill:#01708b;fill-opacity:1;stroke:#8f2b8e;stroke-width:2.97849;stroke-linecap:round;stroke-linejoin:round;stroke-dasharray:none;stroke-opacity:1"
         id="rect24"
         width="45.702282"
         height="33.646236"
         x="243.50258"
         y="92.639999"
         transform="matrix(0.99734454,0.0728276,-0.27915427,0.96024627,0,0)" /><rect
         style="fill:#01708b;fill-opacity:1;stroke:#8f2b8e;stroke-width:3;stroke-linecap:round;stroke-linejoin:round;stroke-dasharray:none;stroke-opacity:1"
         id="rect26"
         width="27.759247"
         height="14.644021"
         x="234.37039"
         y="212.48558" /></g><g
       id="g31"
       transform="matrix(-1,0,0,1,369.18723,1.3853433)"><g
         id="g29"><path
           id="path27"
           style="fill:#01708b;fill-opacity:1;stroke:#8f2b8e;stroke-width:2.10952;stroke-linecap:round;stroke-linejoin:round;stroke-dasharray:none;stroke-opacity:1"
           d="m 241.22634,203.56948 v 66.79576 a 5.6934216,55.706354 0 0 0 1.20852,1.26855 5.6934216,55.706354 0 0 0 5.69281,-55.70535 5.6934216,55.706354 0 0 0 -0.14201,-12.35896 z" /><path
           id="path28"
           style="fill:#01708b;fill-opacity:1;stroke:#8f2b8e;stroke-width:2.10952;stroke-linecap:round;stroke-linejoin:round;stroke-dasharray:none;stroke-opacity:1"
           d="m 236.05476,191.05476 v 66.79576 a 5.6934216,55.706354 0 0 0 1.20852,1.26855 5.6934216,55.706354 0 0 0 5.69281,-55.70535 5.6934216,55.706354 0 0 0 -0.14201,-12.35896 z" /><path
           id="path29"
           style="fill:#01708b;fill-opacity:1;stroke:#8f2b8e;stroke-width:3;stroke-linecap:round;stroke-linejoin:round;stroke-dasharray:none;stroke-opacity:1"
           d="m 246.77936,216.37546 v 65.92188 a 11.667262,54.977551 0 0 0 2.47656,1.25195 11.667262,54.977551 0 0 0 11.66602,-54.97656 11.667262,54.977551 0 0 0 -0.29102,-12.19727 z" /></g><rect
         style="fill:#01708b;fill-opacity:1;stroke:#8f2b8e;stroke-width:2.74077;stroke-linecap:round;stroke-linejoin:round;stroke-dasharray:none;stroke-opacity:1"
         id="rect29"
         width="27.759232"
         height="115.75923"
         x="234.37039"
         y="111.37038" /><rect
         style="fill:#01708b;fill-opacity:1;stroke:#8f2b8e;stroke-width:2.97849;stroke-linecap:round;stroke-linejoin:round;stroke-dasharray:none;stroke-opacity:1"
         id="rect30"
         width="45.702282"
         height="33.646236"
         x="243.50258"
         y="92.639999"
         transform="matrix(0.99734454,0.0728276,-0.27915427,0.96024627,0,0)" /><rect
         style="fill:#01708b;fill-opacity:1;stroke:#8f2b8e;stroke-width:3;stroke-linecap:round;stroke-linejoin:round;stroke-dasharray:none;stroke-opacity:1"
         id="rect31"
         width="27.759247"
         height="14.644021"
         x="234.37039"
         y="212.48558" /></g><g
       id="layer20"><g
         style="fill:#f9fa02;fill-opacity:1;stroke:#8f2b8e;stroke-opacity:1"
         id="g32"
         transform="matrix(0.20358317,3.6134476,-3.8721273,0.18957961,165.52343,147.55488)"><rect
           style="fill:#f9fa02;fill-opacity:1;stroke:#8f2b8e;stroke-width:0.80116;stroke-linecap:round;stroke-linejoin:round;stroke-dasharray:none;stroke-opacity:1"
           id="rect32"
           width="4.9724407"
           height="14.255047"
           x="-21.714989"
           y="1.4701688"
           transform="matrix(-0.2262384,-0.97407196,0.98135366,-0.19221082,0,0)" /><path
           d="M 6.1390077,20.510426 0.92156192,8.6374836 C 0.46499472,7.5985083 0.23670692,7.0790114 0.26330272,6.6047369 0.28668472,6.1875483 0.44405812,5.7950569 0.71286832,5.4835143 1.0184509,5.1293313 1.5348108,4.9303724 2.567512,4.5324617 L 11.418447,1.122103 c 1.032701,-0.39791068 1.549098,-0.59688378 2.032373,-0.54665608 0.425094,0.044174 0.831931,0.2192693 1.16207,0.50024248 0.375375,0.3193909 0.603663,0.8388878 1.06023,1.8778631 L 20.07534,12.971348 7.1677265,17.944787 c -1.018383,0.392394 -1.478968,1.541041 -1.0287188,2.565639 z m 0,0 c 0.4502493,1.024598 1.6407876,1.53705 2.659171,1.144656 L 21.705792,16.681642 M 5.8575141,7.603314 11.389348,5.4718399 M 7.4879659,11.313608 13.0198,9.1821342 m 6.133567,4.1444588 1.630452,3.710295"
           stroke="#000000"
           stroke-width="2"
           stroke-linecap="round"
           stroke-linejoin="round"
           id="path1"
           style="fill:#f9fa02;fill-opacity:1;stroke:#8f2b8e;stroke-opacity:1" /></g></g><g
       id="layer8"><g
         id="layer11"><rect
           style="fill:#01708b;fill-opacity:1;stroke:#8f2b8e;stroke-width:3;stroke-linecap:round;stroke-linejoin:round;stroke-dasharray:none;stroke-opacity:1"
           id="rect17"
           width="6.129993"
           height="25.429541"
           x="159.50977"
           y="266.60556" /><g
           id="layer12"><rect
             style="fill:#01708b;fill-opacity:1;stroke:#8f2b8e;stroke-width:2.64124;stroke-linecap:round;stroke-linejoin:round;stroke-dasharray:none;stroke-opacity:1"
             id="rect18"
             width="1.6065735"
             height="12.815719"
             x="307.41766"
             y="28.241709"
             transform="matrix(0.51099418,0.85958417,-0.68136408,0.73194466,0,0)" /><rect
             style="fill:#01708b;fill-opacity:1;stroke:#8f2b8e;stroke-width:2.64209;stroke-linecap:round;stroke-linejoin:round;stroke-dasharray:none;stroke-opacity:1"
             id="rect18-5"
             width="1.5982431"
             height="12.890753"
             x="90.93647"
             y="-291.41086"
             transform="matrix(-0.52611249,0.85041499,-0.66669722,-0.74532866,0,0)" /><rect
             style="fill:#01708b;fill-opacity:1;stroke:#8f2b8e;stroke-width:2.64124;stroke-linecap:round;stroke-linejoin:round;stroke-dasharray:none;stroke-opacity:1"
             id="rect18-9"
             width="1.6065735"
             height="12.815719"
             x="319.51065"
             y="14.320865"
             transform="matrix(0.51099418,0.85958417,-0.68136408,0.73194466,0,0)" /><rect
             style="fill:#01708b;fill-opacity:1;stroke:#8f2b8e;stroke-width:2.64209;stroke-linecap:round;stroke-linejoin:round;stroke-dasharray:none;stroke-opacity:1"
             id="rect18-5-2"
             width="1.5982431"
             height="12.890753"
             x="78.906212"
             y="-305.41318"
             transform="matrix(-0.52611249,0.85041499,-0.66669722,-0.74532866,0,0)" /><rect
             style="fill:#01708b;fill-opacity:1;stroke:#8f2b8e;stroke-width:2.64124;stroke-linecap:round;stroke-linejoin:round;stroke-dasharray:none;stroke-opacity:1"
             id="rect18-3"
             width="1.6065735"
             height="12.815719"
             x="332.24503"
             y="-0.33838123"
             transform="matrix(0.51099418,0.85958417,-0.68136408,0.73194466,0,0)" /><rect
             style="fill:#01708b;fill-opacity:1;stroke:#8f2b8e;stroke-width:2.64209;stroke-linecap:round;stroke-linejoin:round;stroke-dasharray:none;stroke-opacity:1"
             id="rect18-5-1"
             width="1.5982431"
             height="12.890753"
             x="66.237839"
             y="-320.15823"
             transform="matrix(-0.52611249,0.85041499,-0.66669722,-0.74532866,0,0)" /></g><rect
           style="fill:#01708b;fill-opacity:1;stroke:#8f2b8e;stroke-width:3;stroke-linecap:round;stroke-linejoin:round;stroke-dasharray:none;stroke-opacity:1"
           id="rect17-8"
           width="6.129993"
           height="25.429541"
           x="-209.88927"
           y="266.60355"
           transform="scale(-1,1)" /><rect
           style="fill:#01708b;fill-opacity:1;stroke:#8f2b8e;stroke-width:2.64124;stroke-linecap:round;stroke-linejoin:round;stroke-dasharray:none;stroke-opacity:1"
           id="rect18-50"
           width="1.6065735"
           height="12.815719"
           x="27.056746"
           y="357.63086"
           transform="matrix(-0.51099417,0.85958418,0.68136409,0.73194466,0,0)" /><rect
           style="fill:#01708b;fill-opacity:1;stroke:#8f2b8e;stroke-width:2.64209;stroke-linecap:round;stroke-linejoin:round;stroke-dasharray:none;stroke-opacity:1"
           id="rect18-5-28"
           width="1.5982431"
           height="12.890753"
           x="376.74945"
           y="34.564621"
           transform="matrix(0.52611249,0.85041499,0.66669723,-0.74532866,0,0)" /><rect
           style="fill:#01708b;fill-opacity:1;stroke:#8f2b8e;stroke-width:2.64124;stroke-linecap:round;stroke-linejoin:round;stroke-dasharray:none;stroke-opacity:1"
           id="rect18-9-6"
           width="1.6065735"
           height="12.815719"
           x="39.149719"
           y="343.71002"
           transform="matrix(-0.51099417,0.85958418,0.68136409,0.73194466,0,0)" /><rect
           style="fill:#01708b;fill-opacity:1;stroke:#8f2b8e;stroke-width:2.64209;stroke-linecap:round;stroke-linejoin:round;stroke-dasharray:none;stroke-opacity:1"
           id="rect18-5-2-0"
           width="1.5982431"
           height="12.890753"
           x="364.71921"
           y="20.562298"
           transform="matrix(0.52611249,0.85041499,0.66669723,-0.74532866,0,0)" /><rect
           style="fill:#01708b;fill-opacity:1;stroke:#8f2b8e;stroke-width:2.64124;stroke-linecap:round;stroke-linejoin:round;stroke-dasharray:none;stroke-opacity:1"
           id="rect18-3-2"
           width="1.6065735"
           height="12.815719"
           x="51.884109"
           y="329.05075"
           transform="matrix(-0.51099417,0.85958418,0.68136409,0.73194466,0,0)" /><rect
           style="fill:#01708b;fill-opacity:1;stroke:#8f2b8e;stroke-width:2.64209;stroke-linecap:round;stroke-linejoin:round;stroke-dasharray:none;stroke-opacity:1"
           id="rect18-5-1-4"
           width="1.5982431"
           height="12.890753"
           x="352.05084"
           y="5.817246"
           transform="matrix(0.52611249,0.85041499,0.66669723,-0.74532866,0,0)" /></g><g
         id="layer10"><path
           id="path9"
           style="fill:#01708b;fill-opacity:1;stroke:#8f2b8e;stroke-width:4.2522;stroke-linecap:round;stroke-linejoin:round;stroke-dasharray:none;stroke-opacity:1"
           d="m 121.65039,129.40039 a 63.544704,99.748932 0 0 0 63.1543,88.71094 63.544704,99.748932 0 0 0 63.15429,-88.71094 z" /></g><g
         id="layer9"
         style="fill:#000000;fill-opacity:1;stroke:#000000;stroke-opacity:1"><path
           id="path7"
           style="fill:#5b018b;fill-opacity:1;stroke:#8f2b8e;stroke-width:2.73804;stroke-linecap:round;stroke-linejoin:round;stroke-dasharray:none;stroke-opacity:1"
           d="m 184.30547,82.692354 a 65.301204,61.020901 0 0 0 -65.30179,61.020976 65.301204,61.020901 0 0 0 0.2316,5.11906 l 27.60963,-14.16492 37.46056,18.76389 37.46055,-18.76389 27.60963,14.16492 a 65.301204,61.020901 0 0 0 0.2316,-5.11906 65.301204,61.020901 0 0 0 -65.30178,-61.020976 z" /></g><g
         id="g15"
         style="display:none;fill:#000000;fill-opacity:1;stroke:#000000;stroke-opacity:1"><path
           id="path11"
           style="fill:#5b018b;fill-opacity:1;stroke:#8f2b8e;stroke-width:1.89852;stroke-linecap:round;stroke-linejoin:round;stroke-dasharray:none;stroke-opacity:1"
           d="m 164.43065,221.18665 -22.05773,21.65958 -8.88684,-17.61705 c -0.10614,1.18657 -13.0122,9.7581 -13.01252,10.9489 -3e-5,23.48723 19.07722,37.02 43.95709,37.01979 24.87987,2.1e-4 43.95712,-13.53256 43.95709,-37.01979 -3.2e-4,-1.1908 -12.90638,-9.76233 -13.01253,-10.9489 l -8.88683,17.61705 z" /><path
           id="path15"
           style="fill:#01708b;fill-opacity:1;stroke:#8f2b8e;stroke-width:2.25623;stroke-linecap:round;stroke-linejoin:round;stroke-dasharray:none;stroke-opacity:1"
           d="m 123.08008,250.36693 -0.041,0.0488 15.77539,79.85743 6.55078,-0.004 a 19.450165,59.2957 0 0 1 19.44922,-58.83008 19.450165,59.2957 0 0 1 19.44922,58.8086 l 5.54102,-0.004 15.73828,-79.87695 z" /></g><g
         id="g17"
         style="fill:#000000;fill-opacity:1;stroke:#000000;stroke-opacity:1"><path
           id="path16"
           style="fill:#5b018b;fill-opacity:1;stroke:#8f2b8e;stroke-width:1.89852;stroke-linecap:round;stroke-linejoin:round;stroke-dasharray:none;stroke-opacity:1"
           d="m 184.80469,171.05092 -22.05664,21.6582 -8.88672,-17.61718 c -0.10614,1.18657 -13.01335,9.75841 -13.01367,10.94921 -1e-5,5.31184 0.97743,9.86234 2.77539,13.72266 l -0.25391,-0.002 4.69727,9.55078 11.44336,57.29297 6.55078,-0.004 c 0.082,-26.26432 8.38833,-47.55898 18.74414,-48.49023 h 0.002 c 10.3558,0.93125 18.66019,22.22591 18.74219,48.49023 l 6.55078,0.004 11.44336,-57.29297 4.69726,-9.55078 -0.25195,0.002 c 1.79795,-3.86032 2.7754,-8.41082 2.77539,-13.72266 -3.2e-4,-1.1908 -12.90752,-9.76264 -13.01367,-10.94921 l -8.88672,17.61718 z" /></g></g><g
       id="g14"><g
         id="g3"
         transform="matrix(1,0,0,0.87613619,1.66947,30.63414)"><rect
           style="fill:#610061;fill-opacity:1;stroke:#9c339c;stroke-width:3.136;stroke-linecap:round;stroke-linejoin:round;stroke-dasharray:none;stroke-dashoffset:0;stroke-opacity:1"
           id="rect3"
           width="70.369614"
           height="67.903236"
           x="54.260418"
           y="107.54621"
           transform="matrix(0.79317554,-0.60899307,0.79317554,0.60899307,0,0)" /></g><g
         id="g7"><path
           id="path3"
           style="fill:#610061;fill-opacity:1;stroke:#9c339c;stroke-width:2.88514;stroke-dasharray:none;stroke-opacity:1"
           d="m 127.37357,68.113281 c -0.31912,-0.01582 -0.39188,0.133038 -0.20413,0.525391 5.73972,11.995091 10.55468,12.976842 11.91342,14.134766 -2.32324,1.622033 -4.19172,3.900229 -5.67942,7.076171 -9.51454,20.311661 -7.224,28.434431 51.44358,28.175781 v 0.0156 c 0.15677,9.5e-4 0.3137,0.003 0.46968,0.004 0.15597,-8.3e-4 0.3129,-0.003 0.46967,-0.004 v -0.0156 c 58.66761,0.25865 60.95812,-7.86411 51.44358,-28.175781 -1.98564,-4.238935 -4.64839,-6.880706 -8.16688,-8.49414 2.25135,-1.487084 5.7315,-4.546714 9.64093,-12.716797 1.20155,-2.511057 -8.3004,4.989676 -24.36877,1.351562 -9.91936,-2.245888 -21.68786,0.110633 -31.39761,2.113282 -9.70974,-2.002649 -21.48004,-4.35917 -31.39941,-2.113282 -13.55769,3.069659 -22.44143,-1.791499 -24.16464,-1.876953 z" /></g><g
         id="g9"
         style="fill:#ff00ff;stroke:none;stroke-opacity:1"><path
           id="path8"
           style="fill:#610061;fill-opacity:1;stroke:#9c339c;stroke-width:2.885;stroke-dasharray:none;stroke-opacity:1"
           d="m 166.3347,73.589844 c -11.43589,0 -24.32588,8.546434 -20.70713,17.207031 6.36847,15.241415 19.97268,14.867955 26.89236,10.798825 6.01214,-3.535451 10.02893,-3.301584 12.28554,-4.582028 2.25661,1.280444 6.27341,1.046577 12.28555,4.582028 6.91968,4.06913 20.52389,4.44259 26.89237,-10.798825 3.61874,-8.660597 -9.27126,-17.207031 -20.70715,-17.207031 -8.06402,0 -15.05138,3.830749 -18.47077,9.421875 -3.41938,-5.591126 -10.40674,-9.421875 -18.47077,-9.421875 z" /></g><g
         id="g12"><g
           id="g11"
           transform="matrix(0.92489343,0,0,0.76528739,67.081961,19.608052)"><path
             id="path10"
             style="fill:#610061;fill-opacity:1;stroke:#9c339c;stroke-width:3.42933;stroke-dasharray:none;stroke-opacity:1"
             d="m 123.95715,100.75024 c -2.82229,-0.0372 -5.16934,0.45821 -6.06054,1.9626 -1.91647,0.50159 -3.17969,0.9009 -3.17969,0.9009 -1.73327,6.93309 10.49528,18.08745 12.04883,19.47032 0.0704,0.0932 0.10937,0.14292 0.10937,0.14292 0,0 0.008,-0.008 0.0254,-0.023 0.0175,0.0154 0.0273,0.023 0.0273,0.023 0,0 0.037,-0.0497 0.10742,-0.14292 1.55355,-1.38287 13.78405,-12.53723 12.05078,-19.47032 0,0 -1.26322,-0.39931 -3.17969,-0.9009 -1.18826,-2.00584 -4.96466,-2.21701 -9.00586,-1.76609 -1.01029,-0.11273 -2.00259,-0.1841 -2.94336,-0.19651 z" /></g></g><g
         id="g13"><ellipse
           style="fill:#ffed00;fill-opacity:1;stroke:none;stroke-width:15.2153;stroke-opacity:1"
           id="ellipse12"
           cx="166.02412"
           cy="88.795067"
           rx="5.3788214"
           ry="5.5799499" /><ellipse
           style="fill:#ffed00;fill-opacity:1;stroke:none;stroke-width:15.2153;stroke-opacity:1"
           id="ellipse13"
           cx="203.58672"
           cy="88.795067"
           rx="5.3788214"
           ry="5.5799499" /></g></g></g><g
     id="g73"
     transform="translate(-83.756421,-20.335767)"><g
       id="layer22"
       style="display:none"><rect
         style="fill:#3a363c;fill-opacity:1;stroke:#0d001d;stroke-width:3.03795;stroke-linecap:round;stroke-linejoin:round;stroke-opacity:1"
         id="rect2"
         width="130.77679"
         height="139.26208"
         x="118.10581"
         y="125.884" /></g><g
       id="g36"
       style="display:none"><g
         id="g34"><path
           id="path32"
           style="fill:#938c99;fill-opacity:1;stroke:#0d001d;stroke-width:2.10952;stroke-linecap:round;stroke-linejoin:round;stroke-dasharray:none;stroke-opacity:1"
           d="m 241.22634,203.56948 v 66.79576 a 5.6934216,55.706354 0 0 0 1.20852,1.26855 5.6934216,55.706354 0 0 0 5.69281,-55.70535 5.6934216,55.706354 0 0 0 -0.14201,-12.35896 z" /><path
           id="path33"
           style="fill:#938c99;fill-opacity:1;stroke:#0d001d;stroke-width:2.10952;stroke-linecap:round;stroke-linejoin:round;stroke-dasharray:none;stroke-opacity:1"
           d="m 236.05476,191.05476 v 66.79576 a 5.6934216,55.706354 0 0 0 1.20852,1.26855 5.6934216,55.706354 0 0 0 5.69281,-55.70535 5.6934216,55.706354 0 0 0 -0.14201,-12.35896 z" /><path
           id="path34"
           style="fill:#938c99;fill-opacity:1;stroke:#0d001d;stroke-width:3;stroke-linecap:round;stroke-linejoin:round;stroke-dasharray:none;stroke-opacity:1"
           d="m 246.77936,216.37546 v 65.92188 a 11.667262,54.977551 0 0 0 2.47656,1.25195 11.667262,54.977551 0 0 0 11.66602,-54.97656 11.667262,54.977551 0 0 0 -0.29102,-12.19727 z" /></g><path
         style="fill:#0d001d;fill-opacity:1;stroke:none;stroke-width:2.74077;stroke-linecap:round;stroke-linejoin:round;stroke-dasharray:none;stroke-opacity:1"
         id="rect34"
         width="27.759232"
         height="115.75923"
         x="234.37039"
         y="111.37038"
         d="m 234.37039,111.37038 h 27.75923 v 115.75923 h -27.75923 z" /><path
         style="fill:#938c99;fill-opacity:1;stroke:#0d001d;stroke-width:2.97849;stroke-linecap:round;stroke-linejoin:round;stroke-dasharray:none;stroke-opacity:1"
         id="rect35"
         width="45.702"
         height="33.646236"
         x="243.50258"
         y="92.639999"
         transform="matrix(0.99734454,0.0728276,-0.27915427,0.96024627,0,0)"
         ry="0"
         d="m 243.50258,92.639999 h 45.702 v 33.646241 h -45.702 z" /><rect
         style="fill:#3a363c;fill-opacity:1;stroke:#0d001d;stroke-width:3;stroke-linecap:round;stroke-linejoin:round;stroke-dasharray:none;stroke-opacity:1"
         id="rect36"
         width="27.759247"
         height="14.644021"
         x="234.37039"
         y="212.48558" /></g><g
       id="g40"
       transform="matrix(-1,0,0,1,369.18723,1.3853433)"
       style="display:none"><g
         id="g38"><path
           id="path36"
           style="fill:#938c99;fill-opacity:1;stroke:#0d001d;stroke-width:2.10952;stroke-linecap:round;stroke-linejoin:round;stroke-dasharray:none;stroke-opacity:1"
           d="m 241.22634,203.56948 v 66.79576 a 5.6934216,55.706354 0 0 0 1.20852,1.26855 5.6934216,55.706354 0 0 0 5.69281,-55.70535 5.6934216,55.706354 0 0 0 -0.14201,-12.35896 z" /><path
           id="path37"
           style="fill:#938c99;fill-opacity:1;stroke:#0d001d;stroke-width:2.10952;stroke-linecap:round;stroke-linejoin:round;stroke-dasharray:none;stroke-opacity:1"
           d="m 236.05476,191.05476 v 66.79576 a 5.6934216,55.706354 0 0 0 1.20852,1.26855 5.6934216,55.706354 0 0 0 5.69281,-55.70535 5.6934216,55.706354 0 0 0 -0.14201,-12.35896 z" /><path
           id="path38"
           style="fill:#938c99;fill-opacity:1;stroke:#0d001d;stroke-width:3;stroke-linecap:round;stroke-linejoin:round;stroke-dasharray:none;stroke-opacity:1"
           d="m 246.77936,216.37546 v 65.92188 a 11.667262,54.977551 0 0 0 2.47656,1.25195 11.667262,54.977551 0 0 0 11.66602,-54.97656 11.667262,54.977551 0 0 0 -0.29102,-12.19727 z" /></g><rect
         style="fill:#0d001d;fill-opacity:1;stroke:none;stroke-width:2.74077;stroke-linecap:round;stroke-linejoin:round;stroke-dasharray:none;stroke-opacity:1"
         id="rect38"
         width="27.759232"
         height="115.75923"
         x="234.37039"
         y="111.37038" /><rect
         style="fill:#938c99;fill-opacity:1;stroke:#0d001d;stroke-width:2.97849;stroke-linecap:round;stroke-linejoin:round;stroke-dasharray:none;stroke-opacity:1"
         id="rect39"
         width="45.702282"
         height="33.646236"
         x="243.50258"
         y="92.639999"
         transform="matrix(0.99734454,0.0728276,-0.27915427,0.96024627,0,0)" /><rect
         style="fill:#3a363c;fill-opacity:1;stroke:#0d001d;stroke-width:3;stroke-linecap:round;stroke-linejoin:round;stroke-dasharray:none;stroke-opacity:1"
         id="rect40"
         width="27.759247"
         height="14.644021"
         x="234.37039"
         y="212.48558" /></g><g
       id="g42"
       style="display:none"><g
         style="fill:#9c339c;fill-opacity:1;stroke:#610061;stroke-opacity:1"
         id="g41"
         transform="matrix(0.15922736,3.1127778,-3.0284851,0.16331196,151.49924,149.86019)"><rect
           style="fill:#9c339c;fill-opacity:1;stroke:#610061;stroke-width:0.80116;stroke-linecap:round;stroke-linejoin:round;stroke-dasharray:none;stroke-opacity:1"
           id="rect41"
           width="4.9724407"
           height="14.255047"
           x="-21.714989"
           y="1.4701688"
           transform="matrix(-0.2262384,-0.97407196,0.98135366,-0.19221082,0,0)" /><path
           d="M 6.1390077,20.510426 0.92156192,8.6374836 C 0.46499472,7.5985083 0.23670692,7.0790114 0.26330272,6.6047369 0.28668472,6.1875483 0.44405812,5.7950569 0.71286832,5.4835143 1.0184509,5.1293313 1.5348108,4.9303724 2.567512,4.5324617 L 11.418447,1.122103 c 1.032701,-0.39791068 1.549098,-0.59688378 2.032373,-0.54665608 0.425094,0.044174 0.831931,0.2192693 1.16207,0.50024248 0.375375,0.3193909 0.603663,0.8388878 1.06023,1.8778631 L 20.07534,12.971348 7.1677265,17.944787 c -1.018383,0.392394 -1.478968,1.541041 -1.0287188,2.565639 z m 0,0 c 0.4502493,1.024598 1.6407876,1.53705 2.659171,1.144656 L 21.705792,16.681642 M 5.8575141,7.603314 11.389348,5.4718399 M 7.4879659,11.313608 13.0198,9.1821342 m 6.133567,4.1444588 1.630452,3.710295"
           stroke="#000000"
           stroke-width="2"
           stroke-linecap="round"
           stroke-linejoin="round"
           id="path41"
           style="fill:#9c339c;fill-opacity:1;stroke:#610061;stroke-opacity:1" /></g></g><g
       id="g65"
       style="display:inline"><g
         id="g55"
         style="display:none"><rect
           style="fill:#938c99;fill-opacity:1;stroke:none;stroke-width:3;stroke-linecap:round;stroke-linejoin:round;stroke-dasharray:none;stroke-opacity:1"
           id="rect42"
           width="6.129993"
           height="25.429541"
           x="159.59303"
           y="253.21631" /><g
           id="g48"><rect
             style="fill:#ff7700;fill-opacity:1;stroke:#ff7700;stroke-width:2.64124;stroke-linecap:round;stroke-linejoin:round;stroke-dasharray:none;stroke-opacity:1"
             id="rect43"
             width="1.6065735"
             height="12.815719"
             x="297.97522"
             y="21.038073"
             transform="matrix(0.51099418,0.85958417,-0.68136408,0.73194466,0,0)" /><rect
             style="fill:#ff7700;fill-opacity:1;stroke:#ff7700;stroke-width:2.64209;stroke-linecap:round;stroke-linejoin:round;stroke-dasharray:none;stroke-opacity:1"
             id="rect44"
             width="1.5982431"
             height="12.890753"
             x="81.564484"
             y="-284.14001"
             transform="matrix(-0.52611249,0.85041499,-0.66669722,-0.74532866,0,0)" /><rect
             style="fill:#ff7700;fill-opacity:1;stroke:#ff7700;stroke-width:2.64124;stroke-linecap:round;stroke-linejoin:round;stroke-dasharray:none;stroke-opacity:1"
             id="rect45"
             width="1.6065735"
             height="12.815719"
             x="310.06821"
             y="7.1172256"
             transform="matrix(0.51099418,0.85958417,-0.68136408,0.73194466,0,0)" /><rect
             style="fill:#ff7700;fill-opacity:1;stroke:#ff7700;stroke-width:2.64209;stroke-linecap:round;stroke-linejoin:round;stroke-dasharray:none;stroke-opacity:1"
             id="rect46"
             width="1.5982431"
             height="12.890753"
             x="69.534225"
             y="-298.14233"
             transform="matrix(-0.52611249,0.85041499,-0.66669722,-0.74532866,0,0)" /><rect
             style="fill:#ff7700;fill-opacity:1;stroke:#ff7700;stroke-width:2.64124;stroke-linecap:round;stroke-linejoin:round;stroke-dasharray:none;stroke-opacity:1"
             id="rect47"
             width="1.6065735"
             height="12.815719"
             x="322.80258"
             y="-7.5420198"
             transform="matrix(0.51099418,0.85958417,-0.68136408,0.73194466,0,0)" /><rect
             style="fill:#ff7700;fill-opacity:1;stroke:#ff7700;stroke-width:2.64209;stroke-linecap:round;stroke-linejoin:round;stroke-dasharray:none;stroke-opacity:1"
             id="rect48"
             width="1.5982431"
             height="12.890753"
             x="56.865856"
             y="-312.88739"
             transform="matrix(-0.52611249,0.85041499,-0.66669722,-0.74532866,0,0)" /></g><rect
           style="fill:#938c99;fill-opacity:1;stroke:none;stroke-width:3;stroke-linecap:round;stroke-linejoin:round;stroke-dasharray:none;stroke-opacity:1"
           id="rect49"
           width="6.129993"
           height="25.429541"
           x="-209.97253"
           y="253.21429"
           transform="scale(-1,1)" /><rect
           style="fill:#ff7700;fill-opacity:1;stroke:#ff7700;stroke-width:2.64124;stroke-linecap:round;stroke-linejoin:round;stroke-dasharray:none;stroke-opacity:1"
           id="rect50"
           width="1.6065735"
           height="12.815719"
           x="17.487291"
           y="350.57632"
           transform="matrix(-0.51099417,0.85958418,0.68136409,0.73194466,0,0)" /><rect
           style="fill:#ff7700;fill-opacity:1;stroke:#ff7700;stroke-width:2.64209;stroke-linecap:round;stroke-linejoin:round;stroke-dasharray:none;stroke-opacity:1"
           id="rect51"
           width="1.5982431"
           height="12.890753"
           x="367.5069"
           y="41.983124"
           transform="matrix(0.52611249,0.85041499,0.66669723,-0.74532866,0,0)" /><rect
           style="fill:#ff7700;fill-opacity:1;stroke:#ff7700;stroke-width:2.64124;stroke-linecap:round;stroke-linejoin:round;stroke-dasharray:none;stroke-opacity:1"
           id="rect52"
           width="1.6065735"
           height="12.815719"
           x="29.580265"
           y="336.65549"
           transform="matrix(-0.51099417,0.85958418,0.68136409,0.73194466,0,0)" /><rect
           style="fill:#ff7700;fill-opacity:1;stroke:#ff7700;stroke-width:2.64209;stroke-linecap:round;stroke-linejoin:round;stroke-dasharray:none;stroke-opacity:1"
           id="rect53"
           width="1.5982431"
           height="12.890753"
           x="355.47665"
           y="27.980803"
           transform="matrix(0.52611249,0.85041499,0.66669723,-0.74532866,0,0)" /><rect
           style="fill:#ff7700;fill-opacity:1;stroke:#ff7700;stroke-width:2.64124;stroke-linecap:round;stroke-linejoin:round;stroke-dasharray:none;stroke-opacity:1"
           id="rect54"
           width="1.6065735"
           height="12.815719"
           x="42.314648"
           y="321.99622"
           transform="matrix(-0.51099417,0.85958418,0.68136409,0.73194466,0,0)" /><rect
           style="fill:#ff7700;fill-opacity:1;stroke:#ff7700;stroke-width:2.64209;stroke-linecap:round;stroke-linejoin:round;stroke-dasharray:none;stroke-opacity:1"
           id="rect55"
           width="1.5982431"
           height="12.890753"
           x="342.80829"
           y="13.235749"
           transform="matrix(0.52611249,0.85041499,0.66669723,-0.74532866,0,0)" /></g><g
         id="g56"
         style="display:inline"><path
           id="path55"
           style="fill:#3a363c;fill-opacity:1;stroke:#0d001d;stroke-width:4.75598;stroke-linecap:round;stroke-linejoin:round;stroke-dasharray:none;stroke-opacity:1"
           d="M 115.58064,134.04059 A 69.902422,113.43482 0 0 0 185.0536,234.92298 69.902422,113.43482 0 0 0 254.52654,134.04059 Z" /></g><g
         id="g58"
         style="display:none;fill:#000000;fill-opacity:1;stroke:#000000;stroke-opacity:1"><path
           id="path57"
           style="fill:#5b018b;fill-opacity:1;stroke:#8f2b8e;stroke-width:1.89852;stroke-linecap:round;stroke-linejoin:round;stroke-dasharray:none;stroke-opacity:1"
           d="m 164.43065,221.18665 -22.05773,21.65958 -8.88684,-17.61705 c -0.10614,1.18657 -13.0122,9.7581 -13.01252,10.9489 -3e-5,23.48723 19.07722,37.02 43.95709,37.01979 24.87987,2.1e-4 43.95712,-13.53256 43.95709,-37.01979 -3.2e-4,-1.1908 -12.90638,-9.76233 -13.01253,-10.9489 l -8.88683,17.61705 z" /><path
           id="path58"
           style="fill:#01708b;fill-opacity:1;stroke:#8f2b8e;stroke-width:2.25623;stroke-linecap:round;stroke-linejoin:round;stroke-dasharray:none;stroke-opacity:1"
           d="m 123.08008,250.36693 -0.041,0.0488 15.77539,79.85743 6.55078,-0.004 a 19.450165,59.2957 0 0 1 19.44922,-58.83008 19.450165,59.2957 0 0 1 19.44922,58.8086 l 5.54102,-0.004 15.73828,-79.87695 z" /></g><g
         id="g59"
         style="display:none;fill:#000000;fill-opacity:1;stroke:#000000;stroke-opacity:1"><path
           id="path59"
           style="fill:#0d001d;fill-opacity:1;stroke:none;stroke-width:1.38842;stroke-linecap:round;stroke-linejoin:round;stroke-dasharray:none;stroke-opacity:1"
           d="m 184.80469,202.35223 -22.18462,11.51648 -8.93828,-9.36772 c -0.10676,0.63094 -13.08885,5.18891 -13.08917,5.82211 -1e-5,2.8245 0.98309,5.24417 2.79148,7.29685 l -0.25538,-7.9e-4 4.72452,5.07852 11.50977,30.46481 6.58878,-0.002 c 0.0825,-13.96573 8.437,-25.2889 18.8529,-25.78407 h 0.002 c 10.41589,0.49517 18.76847,11.81834 18.85094,25.78407 l 6.58879,0.002 11.50975,-30.46481 4.72452,-5.07852 -0.25341,7.9e-4 c 1.80838,-2.05268 2.79149,-4.47235 2.79148,-7.29685 -3.2e-4,-0.6332 -12.9824,-5.19117 -13.08917,-5.82211 l -8.93828,9.36772 z" /></g></g><g
       id="g4"
       transform="matrix(1.0370014,0,0,0.61113221,-3.0012741,20.455944)"
       style="display:none;fill:#9c339c;stroke:#610061"><rect
         style="fill:#9c339c;fill-opacity:1;stroke:#610061;stroke-width:3;stroke-linecap:round;stroke-linejoin:round;stroke-opacity:1"
         id="rect4"
         width="1.4142135"
         height="48.790367"
         x="232.63814"
         y="60.811184" /><ellipse
         style="fill:#610061;fill-opacity:1;stroke:#610061;stroke-width:3;stroke-linecap:round;stroke-linejoin:round;stroke-opacity:1"
         id="path4"
         cx="233.34525"
         cy="116.10155"
         rx="4.25"
         ry="6.5" /></g><g
       id="g72"
       style="display:none"><g
         id="g66"
         transform="matrix(1,0,0,0.87613619,1.66947,30.63414)"><rect
           style="fill:#938c99;fill-opacity:1;stroke:#0d001d;stroke-width:3.136;stroke-linecap:round;stroke-linejoin:round;stroke-dasharray:none;stroke-dashoffset:0;stroke-opacity:1"
           id="rect65"
           width="70.369614"
           height="67.903236"
           x="54.260418"
           y="107.54621"
           transform="matrix(0.79317554,-0.60899307,0.79317554,0.60899307,0,0)" /></g><g
         id="g67"><path
           id="path7-8"
           style="display:inline;fill:#0d001d;fill-opacity:1;stroke:none;stroke-width:3.07736;stroke-linecap:round;stroke-linejoin:round;stroke-dasharray:none;stroke-opacity:1"
           d="m 127.37305,68.113281 c -0.31912,-0.01582 -0.39088,0.133038 -0.20313,0.525391 5.73972,11.995091 10.55337,12.976842 11.91211,14.134766 -2.32324,1.622033 -4.19003,3.900229 -5.67773,7.076171 -3.84012,8.197894 -5.75862,14.409571 -2.82227,18.886721 -11.42724,8.3595 -18.32815,20.95489 -18.32812,38.8125 5.2e-4,1.94261 0.0849,3.88459 0.25586,5.82031 l 30.67578,-16.10352 41.62109,21.33204 41.62109,-21.33204 30.67774,16.10352 c 0.17095,-1.93572 0.25534,-3.8777 0.25586,-5.82031 2e-5,-17.30731 -6.7716,-29.67147 -17.89063,-38.02735 3.73855,-4.5259 1.82961,-10.983554 -2.24023,-19.671871 -1.98564,-4.238935 -4.64948,-6.880706 -8.16797,-8.49414 2.25135,-1.487084 5.73119,-4.546714 9.64062,-12.716797 1.20155,-2.511057 -8.29881,4.989676 -24.36718,1.351562 -9.91936,-2.245888 -21.68869,0.110633 -31.39844,2.113282 -9.70974,-2.002649 -21.47907,-4.35917 -31.39844,-2.113282 -13.55769,3.069659 -22.4428,-1.791499 -24.16601,-1.876953 z" /></g><g
         id="g68"
         style="fill:#ff00ff;stroke:none;stroke-opacity:1"><path
           id="path67"
           style="fill:#0d001d;fill-opacity:1;stroke:#938c99;stroke-width:2.885;stroke-dasharray:none;stroke-opacity:1"
           d="m 166.3347,73.589844 c -11.43589,0 -24.32588,8.546434 -20.70713,17.207031 6.36847,15.241415 19.97268,14.867955 26.89236,10.798825 6.01214,-3.535451 10.02893,-3.301584 12.28554,-4.582028 2.25661,1.280444 6.27341,1.046577 12.28555,4.582028 6.91968,4.06913 20.52389,4.44259 26.89237,-10.798825 3.61874,-8.660597 -9.27126,-17.207031 -20.70715,-17.207031 -8.06402,0 -15.05138,3.830749 -18.47077,9.421875 -3.41938,-5.591126 -10.40674,-9.421875 -18.47077,-9.421875 z" /></g><g
         id="g70"><g
           id="g69"
           transform="matrix(0.92489343,0,0,0.83999727,67.081961,10.40178)"
           style="fill:#ff7700;fill-opacity:1;stroke:none;stroke-opacity:1"><path
             id="path68"
             style="fill:#ff7700;fill-opacity:1;stroke:none;stroke-width:3.42933;stroke-dasharray:none;stroke-opacity:1"
             d="m 123.95715,100.75024 c -2.82229,-0.0372 -5.16934,0.45821 -6.06054,1.9626 -1.91647,0.50159 -3.17969,0.9009 -3.17969,0.9009 -1.73327,6.93309 10.49528,18.08745 12.04883,19.47032 0.0704,0.0932 0.10937,0.14292 0.10937,0.14292 0,0 0.008,-0.008 0.0254,-0.023 0.0175,0.0154 0.0273,0.023 0.0273,0.023 0,0 0.037,-0.0497 0.10742,-0.14292 1.55355,-1.38287 13.78405,-12.53723 12.05078,-19.47032 0,0 -1.26322,-0.39931 -3.17969,-0.9009 -1.18826,-2.00584 -4.96466,-2.21701 -9.00586,-1.76609 -1.01029,-0.11273 -2.00259,-0.1841 -2.94336,-0.19651 z" /></g></g><g
         id="g71"><ellipse
           style="fill:#ffff00;fill-opacity:1;stroke:none;stroke-width:15.2153;stroke-opacity:1"
           id="ellipse70"
           cx="166.02412"
           cy="88.795067"
           rx="5.3788214"
           ry="5.5799499" /><ellipse
           style="fill:#ffff00;fill-opacity:1;stroke:none;stroke-width:15.2153;stroke-opacity:1"
           id="ellipse71"
           cx="203.58672"
           cy="88.795067"
           rx="5.3788214"
           ry="5.5799499" /></g></g></g><g
     id="layer7"
     style="display:none"
     transform="translate(-83.756421,-20.335767)"><g
       id="layer1"><rect
         style="fill:#eff200;stroke-width:15.821"
         id="rect1"
         width="245"
         height="90"
         x="56.247894"
         y="52.547367" /></g><g
       id="layer5"
       transform="matrix(1,0,0,0.87613619,1.66947,30.63414)"><rect
         style="fill:#ff0095;fill-opacity:1;stroke:none;stroke-width:29.1101;stroke-opacity:1"
         id="rect73"
         width="74.01619"
         height="71.422005"
         x="42.527626"
         y="80.832809"
         transform="matrix(0.81533492,-0.57898962,0.81533492,0.57898962,0,0)" /></g><g
       id="layer4"><path
         id="path70"
         style="fill:#00ff00;stroke-width:16.5909"
         d="M 162.55437,109.04189 V 70.647346 c -32.97334,0 -49.20109,-4.478237 -56.63672,10.20313 -10.349522,20.434774 -7.926411,28.553964 56.63672,28.191414 z" /><path
         id="path70-6"
         style="fill:#00ff00;stroke-width:16.5909"
         d="M 161.53996,109.04189 V 70.647346 c 32.97334,0 49.20109,-4.47824 56.63672,10.20313 10.34952,20.434774 7.92641,28.553964 -56.63672,28.191414 z" /><path
         id="path71"
         style="fill:#00ff00;stroke-width:14.8557"
         d="m 159.87049,63.17991 c -10.57321,-2.018077 -23.48465,-4.463945 -34.34503,-2.189681 -17.37321,3.638114 -27.64695,-3.862711 -26.34782,-1.351654 6.99188,13.514459 12.71395,13.048619 13.25322,14.60582 1.11303,3.213879 18.773,2.230416 47.43963,1.916169 z" /><path
         id="path71-2"
         style="fill:#00ff00;stroke-width:14.8557"
         d="m 159.0768,63.17991 c 10.57321,-2.018077 23.48465,-4.463945 34.34502,-2.189681 17.37321,3.638114 27.64696,-3.862711 26.34783,-1.351654 -6.99189,13.514459 -12.71395,13.048619 -13.25323,14.60582 -1.11302,3.213879 -18.773,2.230416 -47.43962,1.916169 z" /></g><g
       id="layer2"
       style="fill:#ff00ff;stroke:none;stroke-opacity:1"><path
         id="path4-8"
         style="stroke-width:7.76991"
         d="M 203.8528,81.797542 C 196.96717,97.038955 182.25907,96.66577 174.77747,92.596639 163.91553,86.688987 159.0768,91.300933 159.0768,81.797542 c 0,-9.50339 10.02345,-17.20741 22.388,-17.20741 12.36455,0 26.30061,8.546813 22.388,17.20741 z" /><path
         id="path4-8-2"
         style="fill:#ff00ff;stroke:none;stroke-width:7.76991;stroke-opacity:1"
         d="m 119.13535,81.797542 c 6.88563,15.241413 21.59373,14.868228 29.07533,10.799097 10.86194,-5.907652 15.70067,-1.295706 15.70067,-10.799097 0,-9.50339 -10.02345,-17.20741 -22.388,-17.20741 -12.36455,0 -26.30061,8.546813 -22.388,17.20741 z" /></g><g
       id="layer3"><g
         id="g6"
         transform="matrix(1,0,0,0.76528739,34.210814,10.608052)"><path
           style="fill:#00a5ff;fill-opacity:1;stroke:none;stroke-width:15.821;stroke-opacity:1"
           d="m 114.71609,103.61453 c 0,0 18.68762,-5.920831 21.27798,-0.7401 2.59036,5.18072 -9.06627,20.35285 -9.06627,20.35285 0,0 -14.06197,-12.21171 -12.21171,-19.61275 z"
           id="path6" /><path
           style="fill:#00a5ff;fill-opacity:1;stroke:none;stroke-width:15.821;stroke-opacity:1"
           d="m 139.08645,103.61453 c 0,0 -18.68762,-5.920833 -21.27798,-0.7401 -2.59036,5.18072 9.06627,20.35285 9.06627,20.35285 0,0 14.06197,-12.21171 12.21171,-19.61275 z"
           id="path6-1" /></g></g><g
       id="layer6"><ellipse
         style="fill:#ffed00;fill-opacity:1;stroke:none;stroke-width:15.821;stroke-opacity:1"
         id="path73"
         cx="141.18764"
         cy="79.795067"
         rx="5.8156123"
         ry="5.5799499" /><ellipse
         style="fill:#ffed00;fill-opacity:1;stroke:none;stroke-width:15.821;stroke-opacity:1"
         id="path73-1"
         cx="181.80052"
         cy="79.795067"
         rx="5.8156123"
         ry="5.5799499" /></g></g></svg>
